<mxfile host="app.diagrams.net" agent="Mozilla/5.0 (Windows NT 10.0; Win64; x64) AppleWebKit/537.36 (KHTML, like Gecko) Chrome/130.0.0.0 YaBrowser/24.12.0.0 Safari/537.36" version="25.0.3">
  <diagram name="Страница — 1" id="7d8EM1TcdDZwBz_4JucB">
    <mxGraphModel dx="1002" dy="567" grid="1" gridSize="10" guides="1" tooltips="1" connect="1" arrows="1" fold="1" page="1" pageScale="1" pageWidth="827" pageHeight="1169" math="0" shadow="0">
      <root>
        <mxCell id="0" />
        <mxCell id="1" parent="0" />
        <mxCell id="pE90229HeNIlIoVb7lta-1" value="Клиент&lt;div&gt;&lt;br&gt;&lt;/div&gt;" style="shape=umlActor;verticalLabelPosition=bottom;verticalAlign=top;html=1;outlineConnect=0;" parent="1" vertex="1">
          <mxGeometry x="70" y="170" width="60" height="120" as="geometry" />
        </mxCell>
        <mxCell id="pE90229HeNIlIoVb7lta-17" style="edgeStyle=orthogonalEdgeStyle;rounded=0;orthogonalLoop=1;jettySize=auto;html=1;exitX=1;exitY=0.5;exitDx=0;exitDy=0;entryX=0;entryY=0.5;entryDx=0;entryDy=0;dashed=1;dashPattern=8 8;" parent="1" source="pE90229HeNIlIoVb7lta-18" target="pE90229HeNIlIoVb7lta-16" edge="1">
          <mxGeometry relative="1" as="geometry" />
        </mxCell>
        <mxCell id="pE90229HeNIlIoVb7lta-9" value="Совершить платеж" style="ellipse;whiteSpace=wrap;html=1;" parent="1" vertex="1">
          <mxGeometry x="250" y="60" width="156" height="60" as="geometry" />
        </mxCell>
        <mxCell id="pE90229HeNIlIoVb7lta-10" value="Пополнить счет" style="ellipse;whiteSpace=wrap;html=1;" parent="1" vertex="1">
          <mxGeometry x="250" y="150" width="150" height="60" as="geometry" />
        </mxCell>
        <mxCell id="pE90229HeNIlIoVb7lta-11" value="Заблокировать счет" style="ellipse;whiteSpace=wrap;html=1;" parent="1" vertex="1">
          <mxGeometry x="250" y="240" width="156" height="60" as="geometry" />
        </mxCell>
        <mxCell id="pE90229HeNIlIoVb7lta-12" value="Снять блокировку&amp;nbsp;&lt;div&gt;со счета&lt;/div&gt;" style="ellipse;whiteSpace=wrap;html=1;" parent="1" vertex="1">
          <mxGeometry x="244" y="430" width="156" height="60" as="geometry" />
        </mxCell>
        <mxCell id="pE90229HeNIlIoVb7lta-13" value="" style="endArrow=none;html=1;rounded=0;entryX=0;entryY=0.5;entryDx=0;entryDy=0;" parent="1" source="pE90229HeNIlIoVb7lta-1" target="pE90229HeNIlIoVb7lta-9" edge="1">
          <mxGeometry width="50" height="50" relative="1" as="geometry">
            <mxPoint x="390" y="320" as="sourcePoint" />
            <mxPoint x="440" y="270" as="targetPoint" />
          </mxGeometry>
        </mxCell>
        <mxCell id="pE90229HeNIlIoVb7lta-14" value="" style="endArrow=none;html=1;rounded=0;entryX=0;entryY=0.5;entryDx=0;entryDy=0;" parent="1" source="pE90229HeNIlIoVb7lta-1" target="pE90229HeNIlIoVb7lta-10" edge="1">
          <mxGeometry width="50" height="50" relative="1" as="geometry">
            <mxPoint x="140" y="240" as="sourcePoint" />
            <mxPoint x="440" y="270" as="targetPoint" />
          </mxGeometry>
        </mxCell>
        <mxCell id="pE90229HeNIlIoVb7lta-15" value="" style="endArrow=none;html=1;rounded=0;entryX=0;entryY=0.5;entryDx=0;entryDy=0;" parent="1" source="pE90229HeNIlIoVb7lta-1" target="pE90229HeNIlIoVb7lta-11" edge="1">
          <mxGeometry width="50" height="50" relative="1" as="geometry">
            <mxPoint x="390" y="320" as="sourcePoint" />
            <mxPoint x="440" y="270" as="targetPoint" />
          </mxGeometry>
        </mxCell>
        <mxCell id="pE90229HeNIlIoVb7lta-16" value="Проверить достаточно ли средств на счету" style="ellipse;whiteSpace=wrap;html=1;" parent="1" vertex="1">
          <mxGeometry x="550" y="10" width="156" height="60" as="geometry" />
        </mxCell>
        <mxCell id="pE90229HeNIlIoVb7lta-18" value="&amp;lt;&amp;lt;include&amp;gt;&amp;gt;" style="text;html=1;align=center;verticalAlign=middle;whiteSpace=wrap;rounded=0;dashed=1;dashPattern=8 8;" parent="1" vertex="1">
          <mxGeometry x="440" y="50" width="70" height="30" as="geometry" />
        </mxCell>
        <mxCell id="pE90229HeNIlIoVb7lta-20" value="" style="endArrow=none;html=1;rounded=0;entryX=0;entryY=0.5;entryDx=0;entryDy=0;exitX=1;exitY=0.5;exitDx=0;exitDy=0;dashed=1;dashPattern=8 8;" parent="1" source="pE90229HeNIlIoVb7lta-9" target="pE90229HeNIlIoVb7lta-18" edge="1">
          <mxGeometry width="50" height="50" relative="1" as="geometry">
            <mxPoint x="390" y="320" as="sourcePoint" />
            <mxPoint x="440" y="270" as="targetPoint" />
            <Array as="points">
              <mxPoint x="440" y="90" />
            </Array>
          </mxGeometry>
        </mxCell>
        <mxCell id="pE90229HeNIlIoVb7lta-27" value="Снять все деньги со счета&amp;nbsp;" style="ellipse;whiteSpace=wrap;html=1;" parent="1" vertex="1">
          <mxGeometry x="550" y="290" width="156" height="60" as="geometry" />
        </mxCell>
        <mxCell id="pE90229HeNIlIoVb7lta-30" style="edgeStyle=orthogonalEdgeStyle;rounded=0;orthogonalLoop=1;jettySize=auto;html=1;entryX=0;entryY=0.5;entryDx=0;entryDy=0;dashed=1;dashPattern=8 8;" parent="1" source="pE90229HeNIlIoVb7lta-28" target="pE90229HeNIlIoVb7lta-27" edge="1">
          <mxGeometry relative="1" as="geometry" />
        </mxCell>
        <mxCell id="pE90229HeNIlIoVb7lta-28" value="&amp;lt;&amp;lt;include&amp;gt;&amp;gt;" style="text;html=1;align=center;verticalAlign=middle;whiteSpace=wrap;rounded=0;dashed=1;dashPattern=8 8;" parent="1" vertex="1">
          <mxGeometry x="450" y="280" width="70" height="30" as="geometry" />
        </mxCell>
        <mxCell id="pE90229HeNIlIoVb7lta-31" value="" style="endArrow=none;html=1;rounded=0;entryX=0;entryY=0.5;entryDx=0;entryDy=0;exitX=1;exitY=0.5;exitDx=0;exitDy=0;dashed=1;dashPattern=8 8;" parent="1" source="pE90229HeNIlIoVb7lta-11" target="pE90229HeNIlIoVb7lta-28" edge="1">
          <mxGeometry width="50" height="50" relative="1" as="geometry">
            <mxPoint x="416" y="100" as="sourcePoint" />
            <mxPoint x="450" y="75" as="targetPoint" />
            <Array as="points">
              <mxPoint x="450" y="270" />
            </Array>
          </mxGeometry>
        </mxCell>
        <mxCell id="pE90229HeNIlIoVb7lta-33" value="Администратор" style="shape=umlActor;verticalLabelPosition=bottom;verticalAlign=top;html=1;outlineConnect=0;" parent="1" vertex="1">
          <mxGeometry x="70" y="400" width="60" height="120" as="geometry" />
        </mxCell>
        <mxCell id="pE90229HeNIlIoVb7lta-36" value="" style="endArrow=none;html=1;rounded=0;entryX=0;entryY=0.5;entryDx=0;entryDy=0;" parent="1" source="pE90229HeNIlIoVb7lta-33" target="pE90229HeNIlIoVb7lta-12" edge="1">
          <mxGeometry width="50" height="50" relative="1" as="geometry">
            <mxPoint x="140" y="460" as="sourcePoint" />
            <mxPoint x="500" y="400" as="targetPoint" />
          </mxGeometry>
        </mxCell>
      </root>
    </mxGraphModel>
  </diagram>
</mxfile>
